<svg xmlns="http://www.w3.org/2000/svg" viewBox="0 0 1280 700" width="1280" height="700">
  <defs>
    <radialGradient id="rg1" cx="76%" cy="16%" r="55%">
      <stop offset="0%" stop-color="#7A3800" stop-opacity="0.55"/>
      <stop offset="50%" stop-color="#2A1000" stop-opacity="0.25"/>
      <stop offset="100%" stop-color="#060608" stop-opacity="0"/>
    </radialGradient>
    <radialGradient id="rg2" cx="15%" cy="88%" r="40%">
      <stop offset="0%" stop-color="#2A1200" stop-opacity="0.3"/>
      <stop offset="100%" stop-color="#060608" stop-opacity="0"/>
    </radialGradient>
    <linearGradient id="bf1" x1="0%" y1="0%" x2="100%" y2="100%">
      <stop offset="0%" stop-color="#F5A623" stop-opacity="0.22"/>
      <stop offset="100%" stop-color="#C47A00" stop-opacity="0.05"/>
    </linearGradient>
    <linearGradient id="bt1" x1="0%" y1="0%" x2="100%" y2="0%">
      <stop offset="0%" stop-color="#F5A623" stop-opacity="0.28"/>
      <stop offset="100%" stop-color="#F5A623" stop-opacity="0.06"/>
    </linearGradient>
    <linearGradient id="bs1" x1="0%" y1="0%" x2="0%" y2="100%">
      <stop offset="0%" stop-color="#F5A623" stop-opacity="0.12"/>
      <stop offset="100%" stop-color="#F5A623" stop-opacity="0.02"/>
    </linearGradient>
    <linearGradient id="bf2" x1="0%" y1="0%" x2="100%" y2="100%">
      <stop offset="0%" stop-color="#fff" stop-opacity="0.07"/>
      <stop offset="100%" stop-color="#fff" stop-opacity="0.01"/>
    </linearGradient>
    <linearGradient id="bt2" x1="0%" y1="0%" x2="100%" y2="0%">
      <stop offset="0%" stop-color="#fff" stop-opacity="0.1"/>
      <stop offset="100%" stop-color="#fff" stop-opacity="0.02"/>
    </linearGradient>
    <filter id="softglow"><feGaussianBlur stdDeviation="22"/></filter>
    <filter id="glow2"><feGaussianBlur stdDeviation="10"/></filter>
  </defs>  <rect width="1280" height="700" fill="#060608"/>
  <rect width="1280" height="700" fill="url(#rg1)"/>
  <rect width="1280" height="700" fill="url(#rg2)"/>
  <ellipse cx="960" cy="100" rx="320" ry="190" fill="#F5A623" fill-opacity="0.12" filter="url(#softglow)"/>
  <ellipse cx="1080" cy="40" rx="160" ry="95" fill="#F5A623" fill-opacity="0.16" filter="url(#glow2)"/>
<g transform="translate(700,10)" opacity="1.0">
  <polygon points="0,60 220,60 220,235 0,235" fill="url(#bf1)" stroke="#F5A623" stroke-width="0.7" stroke-opacity="0.28"/>
  <polygon points="0,60 30,0 250,0 220,60" fill="url(#bt1)" stroke="#F5A623" stroke-width="0.7" stroke-opacity="0.32"/>
  <polygon points="220,60 250,0 250,175 220,235" fill="url(#bs1)" stroke="#F5A623" stroke-width="0.7" stroke-opacity="0.18"/>
  <line x1="110,60" x2="110,235" stroke="#F5A623" stroke-width="0.45" stroke-opacity="0.14"/>
  <line x1="0,118" x2="220,118" stroke="#F5A623" stroke-width="0.4" stroke-opacity="0.1"/>
  <polygon points="0,60 110,60 95,30 -15,30" fill="#F5A623" fill-opacity="0.1" stroke="#F5A623" stroke-width="0.5" stroke-opacity="0.22"/>
  <polygon points="110,60 220,60 235,30 125,30" fill="#F5A623" fill-opacity="0.07" stroke="#F5A623" stroke-width="0.5" stroke-opacity="0.18"/>
</g>
<g transform="translate(950,300)" opacity="0.6">
  <polygon points="0,33 120,33 120,129 0,129" fill="url(#bf1)" stroke="#F5A623" stroke-width="0.7" stroke-opacity="0.28"/>
  <polygon points="0,33 16,0 136,0 120,33" fill="url(#bt1)" stroke="#F5A623" stroke-width="0.7" stroke-opacity="0.32"/>
  <polygon points="120,33 136,0 136,96 120,129" fill="url(#bs1)" stroke="#F5A623" stroke-width="0.7" stroke-opacity="0.18"/>
  <line x1="60,33" x2="60,129" stroke="#F5A623" stroke-width="0.45" stroke-opacity="0.14"/>
  <line x1="0,65" x2="120,65" stroke="#F5A623" stroke-width="0.4" stroke-opacity="0.1"/>
  <polygon points="0,33 60,33 52,17 -9,17" fill="#F5A623" fill-opacity="0.1" stroke="#F5A623" stroke-width="0.5" stroke-opacity="0.22"/>
  <polygon points="60,33 120,33 128,17 68,17" fill="#F5A623" fill-opacity="0.07" stroke="#F5A623" stroke-width="0.5" stroke-opacity="0.18"/>
</g>
<g transform="translate(1080,60)" opacity="0.45">
  <polygon points="0,23 85,23 85,91 0,91" fill="url(#bf1)" stroke="#F5A623" stroke-width="0.7" stroke-opacity="0.28"/>
  <polygon points="0,23 11,0 96,0 85,23" fill="url(#bt1)" stroke="#F5A623" stroke-width="0.7" stroke-opacity="0.32"/>
  <polygon points="85,23 96,0 96,68 85,91" fill="url(#bs1)" stroke="#F5A623" stroke-width="0.7" stroke-opacity="0.18"/>
  <line x1="42,23" x2="42,91" stroke="#F5A623" stroke-width="0.45" stroke-opacity="0.14"/>
  <line x1="0,45" x2="85,45" stroke="#F5A623" stroke-width="0.4" stroke-opacity="0.1"/>
  <polygon points="0,23 42,23 37,12 -6,12" fill="#F5A623" fill-opacity="0.1" stroke="#F5A623" stroke-width="0.5" stroke-opacity="0.22"/>
  <polygon points="42,23 85,23 90,12 47,12" fill="#F5A623" fill-opacity="0.07" stroke="#F5A623" stroke-width="0.5" stroke-opacity="0.18"/>
</g>
<g transform="translate(870,150)" opacity="0.7">
  <polygon points="0,44 160,44 160,172 0,172" fill="url(#bf2)" stroke="rgba(255,255,255,0.12)" stroke-width="0.7"/>
  <polygon points="0,44 22,0 182,0 160,44" fill="url(#bt2)" stroke="rgba(255,255,255,0.1)" stroke-width="0.7"/>
  <polygon points="160,44 182,0 182,128 160,172" fill="rgba(255,255,255,0.03)" stroke="rgba(255,255,255,0.07)" stroke-width="0.7"/>
  <line x1="80" y1="44" x2="80" y2="172" stroke="rgba(255,255,255,0.06)" stroke-width="0.4"/>
  <polygon points="0,44 80,44 69,22 -11,22" fill="rgba(255,255,255,0.05)" stroke="rgba(255,255,255,0.09)" stroke-width="0.5"/>
  <polygon points="80,44 160,44 171,22 91,22" fill="rgba(255,255,255,0.03)" stroke="rgba(255,255,255,0.07)" stroke-width="0.5"/>
</g>
<g transform="translate(580,440)" opacity="0.38">
  <polygon points="0,38 140,38 140,150 0,150" fill="url(#bf2)" stroke="rgba(255,255,255,0.12)" stroke-width="0.7"/>
  <polygon points="0,38 19,0 159,0 140,38" fill="url(#bt2)" stroke="rgba(255,255,255,0.1)" stroke-width="0.7"/>
  <polygon points="140,38 159,0 159,112 140,150" fill="rgba(255,255,255,0.03)" stroke="rgba(255,255,255,0.07)" stroke-width="0.7"/>
  <line x1="70" y1="38" x2="70" y2="150" stroke="rgba(255,255,255,0.06)" stroke-width="0.4"/>
  <polygon points="0,38 70,38 61,19 -10,19" fill="rgba(255,255,255,0.05)" stroke="rgba(255,255,255,0.09)" stroke-width="0.5"/>
  <polygon points="70,38 140,38 149,19 79,19" fill="rgba(255,255,255,0.03)" stroke="rgba(255,255,255,0.07)" stroke-width="0.5"/>
</g>
<line x1="58" y1="0" x2="58" y2="700" stroke="rgba(255,255,255,0.04)" stroke-width="0.5"/>
</svg>