<svg xmlns="http://www.w3.org/2000/svg" viewBox="0 0 1280 700" width="1280" height="700">
  <defs>
    <radialGradient id="rg1" cx="79%" cy="17%" r="55%">
      <stop offset="0%" stop-color="#8B4200" stop-opacity="0.55"/>
      <stop offset="50%" stop-color="#2A1000" stop-opacity="0.25"/>
      <stop offset="100%" stop-color="#060608" stop-opacity="0"/>
    </radialGradient>
    <radialGradient id="rg2" cx="15%" cy="88%" r="40%">
      <stop offset="0%" stop-color="#2A1200" stop-opacity="0.3"/>
      <stop offset="100%" stop-color="#060608" stop-opacity="0"/>
    </radialGradient>
    <linearGradient id="bf1" x1="0%" y1="0%" x2="100%" y2="100%">
      <stop offset="0%" stop-color="#F5A623" stop-opacity="0.22"/>
      <stop offset="100%" stop-color="#C47A00" stop-opacity="0.05"/>
    </linearGradient>
    <linearGradient id="bt1" x1="0%" y1="0%" x2="100%" y2="0%">
      <stop offset="0%" stop-color="#F5A623" stop-opacity="0.28"/>
      <stop offset="100%" stop-color="#F5A623" stop-opacity="0.06"/>
    </linearGradient>
    <linearGradient id="bs1" x1="0%" y1="0%" x2="0%" y2="100%">
      <stop offset="0%" stop-color="#F5A623" stop-opacity="0.12"/>
      <stop offset="100%" stop-color="#F5A623" stop-opacity="0.02"/>
    </linearGradient>
    <linearGradient id="bf2" x1="0%" y1="0%" x2="100%" y2="100%">
      <stop offset="0%" stop-color="#fff" stop-opacity="0.07"/>
      <stop offset="100%" stop-color="#fff" stop-opacity="0.01"/>
    </linearGradient>
    <linearGradient id="bt2" x1="0%" y1="0%" x2="100%" y2="0%">
      <stop offset="0%" stop-color="#fff" stop-opacity="0.1"/>
      <stop offset="100%" stop-color="#fff" stop-opacity="0.02"/>
    </linearGradient>
    <filter id="softglow"><feGaussianBlur stdDeviation="22"/></filter>
    <filter id="glow2"><feGaussianBlur stdDeviation="10"/></filter>
  </defs>  <rect width="1280" height="700" fill="#060608"/>
  <rect width="1280" height="700" fill="url(#rg1)"/>
  <rect width="1280" height="700" fill="url(#rg2)"/>
  <ellipse cx="990" cy="95" rx="300" ry="175" fill="#F5A623" fill-opacity="0.13" filter="url(#softglow)"/>
  <ellipse cx="1060" cy="42" rx="145" ry="88" fill="#F5A623" fill-opacity="0.17" filter="url(#glow2)"/>
<g transform="translate(760,15)" opacity="0.92">
  <polygon points="0,48 175,48 175,188 0,188" fill="url(#bf1)" stroke="#F5A623" stroke-width="0.7" stroke-opacity="0.28"/>
  <polygon points="0,48 24,0 199,0 175,48" fill="url(#bt1)" stroke="#F5A623" stroke-width="0.7" stroke-opacity="0.32"/>
  <polygon points="175,48 199,0 199,140 175,188" fill="url(#bs1)" stroke="#F5A623" stroke-width="0.7" stroke-opacity="0.18"/>
  <line x1="87,48" x2="87,188" stroke="#F5A623" stroke-width="0.45" stroke-opacity="0.14"/>
  <line x1="0,94" x2="175,94" stroke="#F5A623" stroke-width="0.4" stroke-opacity="0.1"/>
  <polygon points="0,48 87,48 75,24 -12,24" fill="#F5A623" fill-opacity="0.1" stroke="#F5A623" stroke-width="0.5" stroke-opacity="0.22"/>
  <polygon points="87,48 175,48 187,24 99,24" fill="#F5A623" fill-opacity="0.07" stroke="#F5A623" stroke-width="0.5" stroke-opacity="0.18"/>
</g>
<g transform="translate(940,310)" opacity="0.52">
  <polygon points="0,32 115,32 115,124 0,124" fill="url(#bf1)" stroke="#F5A623" stroke-width="0.7" stroke-opacity="0.28"/>
  <polygon points="0,32 16,0 131,0 115,32" fill="url(#bt1)" stroke="#F5A623" stroke-width="0.7" stroke-opacity="0.32"/>
  <polygon points="115,32 131,0 131,92 115,124" fill="url(#bs1)" stroke="#F5A623" stroke-width="0.7" stroke-opacity="0.18"/>
  <line x1="57,32" x2="57,124" stroke="#F5A623" stroke-width="0.45" stroke-opacity="0.14"/>
  <line x1="0,62" x2="115,62" stroke="#F5A623" stroke-width="0.4" stroke-opacity="0.1"/>
  <polygon points="0,32 57,32 49,16 -8,16" fill="#F5A623" fill-opacity="0.1" stroke="#F5A623" stroke-width="0.5" stroke-opacity="0.22"/>
  <polygon points="57,32 115,32 123,16 65,16" fill="#F5A623" fill-opacity="0.07" stroke="#F5A623" stroke-width="0.5" stroke-opacity="0.18"/>
</g>
<g transform="translate(1090,70)" opacity="0.38">
  <polygon points="0,21 78,21 78,83 0,83" fill="url(#bf1)" stroke="#F5A623" stroke-width="0.7" stroke-opacity="0.28"/>
  <polygon points="0,21 10,0 88,0 78,21" fill="url(#bt1)" stroke="#F5A623" stroke-width="0.7" stroke-opacity="0.32"/>
  <polygon points="78,21 88,0 88,62 78,83" fill="url(#bs1)" stroke="#F5A623" stroke-width="0.7" stroke-opacity="0.18"/>
  <line x1="39,21" x2="39,83" stroke="#F5A623" stroke-width="0.45" stroke-opacity="0.14"/>
  <line x1="0,41" x2="78,41" stroke="#F5A623" stroke-width="0.4" stroke-opacity="0.1"/>
  <polygon points="0,21 39,21 34,11 -6,11" fill="#F5A623" fill-opacity="0.1" stroke="#F5A623" stroke-width="0.5" stroke-opacity="0.22"/>
  <polygon points="39,21 78,21 83,11 44,11" fill="#F5A623" fill-opacity="0.07" stroke="#F5A623" stroke-width="0.5" stroke-opacity="0.18"/>
</g>
<g transform="translate(910,165)" opacity="0.65">
  <polygon points="0,41 148,41 148,159 0,159" fill="url(#bf2)" stroke="rgba(255,255,255,0.12)" stroke-width="0.7"/>
  <polygon points="0,41 20,0 168,0 148,41" fill="url(#bt2)" stroke="rgba(255,255,255,0.1)" stroke-width="0.7"/>
  <polygon points="148,41 168,0 168,118 148,159" fill="rgba(255,255,255,0.03)" stroke="rgba(255,255,255,0.07)" stroke-width="0.7"/>
  <line x1="74" y1="41" x2="74" y2="159" stroke="rgba(255,255,255,0.06)" stroke-width="0.4"/>
  <polygon points="0,41 74,41 64,21 -11,21" fill="rgba(255,255,255,0.05)" stroke="rgba(255,255,255,0.09)" stroke-width="0.5"/>
  <polygon points="74,41 148,41 158,21 84,21" fill="rgba(255,255,255,0.03)" stroke="rgba(255,255,255,0.07)" stroke-width="0.5"/>
</g>
<g transform="translate(640,445)" opacity="0.33">
  <polygon points="0,34 125,34 125,134 0,134" fill="url(#bf2)" stroke="rgba(255,255,255,0.12)" stroke-width="0.7"/>
  <polygon points="0,34 17,0 142,0 125,34" fill="url(#bt2)" stroke="rgba(255,255,255,0.1)" stroke-width="0.7"/>
  <polygon points="125,34 142,0 142,100 125,134" fill="rgba(255,255,255,0.03)" stroke="rgba(255,255,255,0.07)" stroke-width="0.7"/>
  <line x1="62" y1="34" x2="62" y2="134" stroke="rgba(255,255,255,0.06)" stroke-width="0.4"/>
  <polygon points="0,34 62,34 54,17 -9,17" fill="rgba(255,255,255,0.05)" stroke="rgba(255,255,255,0.09)" stroke-width="0.5"/>
  <polygon points="62,34 125,34 133,17 70,17" fill="rgba(255,255,255,0.03)" stroke="rgba(255,255,255,0.07)" stroke-width="0.5"/>
</g>
<line x1="58" y1="0" x2="58" y2="700" stroke="rgba(255,255,255,0.04)" stroke-width="0.5"/>
</svg>