<svg xmlns="http://www.w3.org/2000/svg" viewBox="0 0 1280 700" width="1280" height="700">
  <defs>
    <radialGradient id="rg1" cx="78%" cy="18%" r="55%">
      <stop offset="0%" stop-color="#7A3800" stop-opacity="0.55"/>
      <stop offset="50%" stop-color="#2A1000" stop-opacity="0.25"/>
      <stop offset="100%" stop-color="#060608" stop-opacity="0"/>
    </radialGradient>
    <radialGradient id="rg2" cx="15%" cy="88%" r="40%">
      <stop offset="0%" stop-color="#2A1200" stop-opacity="0.3"/>
      <stop offset="100%" stop-color="#060608" stop-opacity="0"/>
    </radialGradient>
    <linearGradient id="bf1" x1="0%" y1="0%" x2="100%" y2="100%">
      <stop offset="0%" stop-color="#F5A623" stop-opacity="0.22"/>
      <stop offset="100%" stop-color="#C47A00" stop-opacity="0.05"/>
    </linearGradient>
    <linearGradient id="bt1" x1="0%" y1="0%" x2="100%" y2="0%">
      <stop offset="0%" stop-color="#F5A623" stop-opacity="0.28"/>
      <stop offset="100%" stop-color="#F5A623" stop-opacity="0.06"/>
    </linearGradient>
    <linearGradient id="bs1" x1="0%" y1="0%" x2="0%" y2="100%">
      <stop offset="0%" stop-color="#F5A623" stop-opacity="0.12"/>
      <stop offset="100%" stop-color="#F5A623" stop-opacity="0.02"/>
    </linearGradient>
    <linearGradient id="bf2" x1="0%" y1="0%" x2="100%" y2="100%">
      <stop offset="0%" stop-color="#fff" stop-opacity="0.07"/>
      <stop offset="100%" stop-color="#fff" stop-opacity="0.01"/>
    </linearGradient>
    <linearGradient id="bt2" x1="0%" y1="0%" x2="100%" y2="0%">
      <stop offset="0%" stop-color="#fff" stop-opacity="0.1"/>
      <stop offset="100%" stop-color="#fff" stop-opacity="0.02"/>
    </linearGradient>
    <filter id="softglow"><feGaussianBlur stdDeviation="22"/></filter>
    <filter id="glow2"><feGaussianBlur stdDeviation="10"/></filter>
  </defs>  <rect width="1280" height="700" fill="#060608"/>
  <rect width="1280" height="700" fill="url(#rg1)"/>
  <rect width="1280" height="700" fill="url(#rg2)"/>
  <ellipse cx="980" cy="100" rx="300" ry="180" fill="#F5A623" fill-opacity="0.1" filter="url(#softglow)"/>
  <ellipse cx="1050" cy="50" rx="150" ry="90" fill="#F5A623" fill-opacity="0.14" filter="url(#glow2)"/>
<g transform="translate(740,20)" opacity="1.0">
  <polygon points="0,55 200,55 200,215 0,215" fill="url(#bf1)" stroke="#F5A623" stroke-width="0.7" stroke-opacity="0.28"/>
  <polygon points="0,55 27,0 227,0 200,55" fill="url(#bt1)" stroke="#F5A623" stroke-width="0.7" stroke-opacity="0.32"/>
  <polygon points="200,55 227,0 227,160 200,215" fill="url(#bs1)" stroke="#F5A623" stroke-width="0.7" stroke-opacity="0.18"/>
  <line x1="100,55" x2="100,215" stroke="#F5A623" stroke-width="0.45" stroke-opacity="0.14"/>
  <line x1="0,108" x2="200,108" stroke="#F5A623" stroke-width="0.4" stroke-opacity="0.1"/>
  <polygon points="0,55 100,55 87,28 -14,28" fill="#F5A623" fill-opacity="0.1" stroke="#F5A623" stroke-width="0.5" stroke-opacity="0.22"/>
  <polygon points="100,55 200,55 213,28 113,28" fill="#F5A623" fill-opacity="0.07" stroke="#F5A623" stroke-width="0.5" stroke-opacity="0.18"/>
</g>
<g transform="translate(900,320)" opacity="0.55">
  <polygon points="0,30 110,30 110,118 0,118" fill="url(#bf1)" stroke="#F5A623" stroke-width="0.7" stroke-opacity="0.28"/>
  <polygon points="0,30 15,0 125,0 110,30" fill="url(#bt1)" stroke="#F5A623" stroke-width="0.7" stroke-opacity="0.32"/>
  <polygon points="110,30 125,0 125,88 110,118" fill="url(#bs1)" stroke="#F5A623" stroke-width="0.7" stroke-opacity="0.18"/>
  <line x1="55,30" x2="55,118" stroke="#F5A623" stroke-width="0.45" stroke-opacity="0.14"/>
  <line x1="0,59" x2="110,59" stroke="#F5A623" stroke-width="0.4" stroke-opacity="0.1"/>
  <polygon points="0,30 55,30 48,15 -8,15" fill="#F5A623" fill-opacity="0.1" stroke="#F5A623" stroke-width="0.5" stroke-opacity="0.22"/>
  <polygon points="55,30 110,30 117,15 62,15" fill="#F5A623" fill-opacity="0.07" stroke="#F5A623" stroke-width="0.5" stroke-opacity="0.18"/>
</g>
<g transform="translate(1060,80)" opacity="0.4">
  <polygon points="0,22 80,22 80,86 0,86" fill="url(#bf1)" stroke="#F5A623" stroke-width="0.7" stroke-opacity="0.28"/>
  <polygon points="0,22 11,0 91,0 80,22" fill="url(#bt1)" stroke="#F5A623" stroke-width="0.7" stroke-opacity="0.32"/>
  <polygon points="80,22 91,0 91,64 80,86" fill="url(#bs1)" stroke="#F5A623" stroke-width="0.7" stroke-opacity="0.18"/>
  <line x1="40,22" x2="40,86" stroke="#F5A623" stroke-width="0.45" stroke-opacity="0.14"/>
  <line x1="0,43" x2="80,43" stroke="#F5A623" stroke-width="0.4" stroke-opacity="0.1"/>
  <polygon points="0,22 40,22 35,11 -6,11" fill="#F5A623" fill-opacity="0.1" stroke="#F5A623" stroke-width="0.5" stroke-opacity="0.22"/>
  <polygon points="40,22 80,22 85,11 45,11" fill="#F5A623" fill-opacity="0.07" stroke="#F5A623" stroke-width="0.5" stroke-opacity="0.18"/>
</g>
<g transform="translate(950,150)" opacity="0.65">
  <polygon points="0,40 150,40 150,160 0,160" fill="url(#bf2)" stroke="rgba(255,255,255,0.12)" stroke-width="0.7"/>
  <polygon points="0,40 20,0 170,0 150,40" fill="url(#bt2)" stroke="rgba(255,255,255,0.1)" stroke-width="0.7"/>
  <polygon points="150,40 170,0 170,120 150,160" fill="rgba(255,255,255,0.03)" stroke="rgba(255,255,255,0.07)" stroke-width="0.7"/>
  <line x1="75" y1="40" x2="75" y2="160" stroke="rgba(255,255,255,0.06)" stroke-width="0.4"/>
  <polygon points="0,40 75,40 65,20 -10,20" fill="rgba(255,255,255,0.05)" stroke="rgba(255,255,255,0.09)" stroke-width="0.5"/>
  <polygon points="75,40 150,40 160,20 85,20" fill="rgba(255,255,255,0.03)" stroke="rgba(255,255,255,0.07)" stroke-width="0.5"/>
</g>
<g transform="translate(620,420)" opacity="0.35">
  <polygon points="0,36 130,36 130,140 0,140" fill="url(#bf2)" stroke="rgba(255,255,255,0.12)" stroke-width="0.7"/>
  <polygon points="0,36 18,0 148,0 130,36" fill="url(#bt2)" stroke="rgba(255,255,255,0.1)" stroke-width="0.7"/>
  <polygon points="130,36 148,0 148,104 130,140" fill="rgba(255,255,255,0.03)" stroke="rgba(255,255,255,0.07)" stroke-width="0.7"/>
  <line x1="65" y1="36" x2="65" y2="140" stroke="rgba(255,255,255,0.06)" stroke-width="0.4"/>
  <polygon points="0,36 65,36 56,18 -9,18" fill="rgba(255,255,255,0.05)" stroke="rgba(255,255,255,0.09)" stroke-width="0.5"/>
  <polygon points="65,36 130,36 139,18 74,18" fill="rgba(255,255,255,0.03)" stroke="rgba(255,255,255,0.07)" stroke-width="0.5"/>
</g>
<line x1="58" y1="0" x2="58" y2="700" stroke="rgba(255,255,255,0.04)" stroke-width="0.5"/>
</svg>